<?xml version="1.0" standalone="no"?>
<!DOCTYPE svg PUBLIC "-//W3C//DTD SVG 20010904//EN"
 "http://www.w3.org/TR/2001/REC-SVG-20010904/DTD/svg10.dtd">
<svg version="1.0" xmlns="http://www.w3.org/2000/svg"
 width="605.000000pt" height="613.000000pt" viewBox="0 0 605.000000 613.000000"
 preserveAspectRatio="xMidYMid meet">

<g transform="translate(0.000000,613.000000) scale(0.100000,-0.100000)"
fill="#000000" stroke="none">
<path d="M5095 6115 c-5 -2 -206 -6 -445 -9 -371 -5 -450 -8 -540 -25 -227
-42 -318 -98 -285 -177 14 -34 189 -196 313 -290 46 -34 79 -65 74 -68 -5 -3
-85 -32 -178 -65 -350 -123 -836 -316 -996 -397 -536 -270 -1219 -801 -1565
-1218 -140 -168 -328 -458 -518 -796 -119 -212 -378 -737 -468 -950 -157 -369
-292 -794 -362 -1144 -28 -140 -32 -152 -64 -180 -27 -24 -27 -75 -1 -108 26
-34 138 -87 332 -157 90 -33 307 -114 483 -181 843 -320 935 -350 1060 -350
49 0 76 4 84 14 21 25 60 156 197 651 286 1035 354 1259 520 1707 459 1240
1040 1935 1859 2227 50 18 101 36 115 41 32 12 172 50 182 50 4 0 40 -64 79
-142 158 -315 438 -702 524 -724 16 -4 36 1 57 13 39 23 40 26 129 448 263
1259 338 1630 346 1712 5 56 4 63 -19 85 -22 23 -33 25 -177 31 -156 7 -717 8
-736 2z m-280 -187 c2 -7 6 -177 10 -378 5 -331 22 -607 44 -723 l8 -44 -121
-17 c-66 -10 -132 -20 -147 -23 -25 -5 -26 -3 -33 59 -24 225 -49 587 -61 878
-3 80 -8 168 -11 196 l-6 51 143 2 c79 1 146 4 148 7 8 8 22 4 26 -8z m407
-43 c59 -396 109 -820 152 -1295 43 -462 44 -444 -29 -343 -109 150 -253 372
-263 404 -6 19 -16 84 -21 144 -6 61 -26 196 -45 300 -39 217 -60 369 -81 605
-8 91 -17 182 -20 203 l-5 38 152 -3 153 -3 7 -50z m349 -132 c4 -99 9 -214
13 -255 3 -40 8 -129 12 -198 4 -69 8 -133 10 -143 2 -10 6 -73 10 -140 6
-113 4 -132 -25 -261 -27 -124 -41 -170 -41 -139 0 68 -116 776 -175 1068 -25
121 -45 225 -45 232 0 16 37 21 145 19 l90 -1 6 -182z m255 174 c12 -12 -72
-427 -86 -427 -4 0 -10 12 -13 28 -5 31 -54 321 -62 369 -4 24 -2 33 12 37 25
7 141 2 149 -7z m-1420 -19 c-3 -13 -12 -69 -18 -125 -7 -57 -15 -103 -20
-103 -11 0 -278 202 -278 211 0 8 63 17 195 29 136 12 128 13 121 -12z m-32
-475 c5 -39 11 -153 22 -438 3 -88 9 -188 13 -223 5 -41 4 -68 -3 -77 -6 -7
-62 -36 -125 -63 l-113 -51 7 54 c3 30 -1 124 -9 212 -19 193 -37 514 -29 526
9 15 186 96 210 97 17 0 22 -7 27 -37z m-351 -170 c-4 -38 -7 -185 -7 -328 -1
-227 1 -266 17 -306 10 -26 27 -55 37 -64 27 -24 25 -29 -12 -47 -18 -9 -89
-57 -158 -107 -117 -85 -125 -90 -133 -69 -4 11 -10 170 -13 352 -5 298 -13
431 -30 491 -5 19 11 28 143 82 81 34 152 62 156 62 4 1 4 -29 0 -66z m-393
-125 c0 -13 -5 -52 -10 -87 -12 -83 -23 -349 -24 -568 l-1 -172 33 -33 c17
-19 32 -38 32 -43 0 -13 -226 -251 -233 -245 -2 3 -7 61 -11 130 -13 236 -46
562 -82 797 -9 56 -13 107 -9 113 3 5 21 18 38 27 46 24 240 102 255 103 6 0
12 -10 12 -22z m-407 -215 c4 -32 11 -188 17 -348 20 -554 27 -642 51 -691
l21 -44 -35 -48 c-63 -84 -202 -294 -270 -408 -71 -119 -94 -146 -101 -123
-37 108 -64 716 -58 1281 l2 247 63 38 c82 50 279 152 293 153 6 0 14 -25 17
-57z m-507 -265 c-21 -126 -28 -375 -22 -718 4 -206 9 -395 11 -420 2 -25 6
-88 10 -140 8 -127 32 -334 46 -392 10 -45 9 -53 -36 -160 -26 -62 -74 -180
-107 -263 -33 -82 -63 -154 -68 -158 -11 -13 -36 179 -145 1153 -19 168 -48
426 -65 574 -17 147 -30 269 -28 270 4 2 24 17 231 170 87 64 163 116 168 116
6 0 8 -14 5 -32z m-495 -690 c46 -828 123 -1693 165 -1841 30 -106 29 -117
-16 -253 -24 -71 -45 -133 -48 -138 -8 -14 -278 943 -361 1281 -70 287 -128
588 -157 822 l-15 124 23 25 c64 69 376 327 385 318 3 -3 14 -155 24 -338z
m-531 -135 c1 -125 41 -453 86 -703 39 -216 245 -1029 393 -1553 l50 -177 -30
-102 c-71 -241 -81 -270 -89 -262 -4 5 -19 36 -33 69 -14 33 -62 146 -107 250
-179 416 -363 888 -515 1320 -142 403 -195 566 -189 578 51 90 322 473 396
559 23 27 38 35 38 21z m-486 -775 c8 -29 31 -118 51 -198 173 -688 450 -1461
712 -1985 51 -103 54 -113 49 -162 -7 -63 -124 -535 -136 -546 -4 -5 -15 12
-23 37 -9 25 -58 117 -110 203 -240 399 -460 850 -643 1314 -109 276 -254 695
-254 733 0 33 315 656 332 656 4 0 13 -24 22 -52z m-419 -811 c15 -68 88 -319
135 -465 146 -447 327 -855 578 -1305 67 -120 122 -220 122 -223 0 -12 -57 9
-303 107 -283 113 -303 122 -315 147 -12 22 -100 267 -202 562 -45 129 -119
344 -165 476 l-84 241 58 144 c91 224 152 359 161 354 5 -3 12 -20 15 -38z
m-255 -872 c50 -212 145 -549 195 -689 19 -54 34 -101 32 -102 -8 -8 -407 160
-451 189 -27 19 -28 23 -22 70 17 126 183 735 196 720 4 -4 27 -89 50 -188z"/>
</g>
</svg>
