<?xml version="1.0" encoding="UTF-8" standalone="no"?>
<svg
   viewBox="0 0 97.1 97"
   version="1.1"
   id="svg26"
   sodipodi:docname="spring.svg"
   inkscape:version="1.2.2 (732a01da63, 2022-12-09)"
   xmlns:inkscape="http://www.inkscape.org/namespaces/inkscape"
   xmlns:sodipodi="http://sodipodi.sourceforge.net/DTD/sodipodi-0.dtd"
   xmlns="http://www.w3.org/2000/svg"
   xmlns:svg="http://www.w3.org/2000/svg">
  <sodipodi:namedview
     id="namedview28"
     pagecolor="#ffffff"
     bordercolor="#000000"
     borderopacity="0.25"
     inkscape:showpageshadow="2"
     inkscape:pageopacity="0.0"
     inkscape:pagecheckerboard="0"
     inkscape:deskcolor="#d1d1d1"
     showgrid="false"
     inkscape:zoom="8.628866"
     inkscape:cx="48.61589"
     inkscape:cy="48.557945"
     inkscape:window-width="1920"
     inkscape:window-height="1017"
     inkscape:window-x="-8"
     inkscape:window-y="-8"
     inkscape:window-maximized="1"
     inkscape:current-layer="svg26" />
  <defs
     id="defs18">
    <style
       id="style16">.cls-1{fill:#6db33f;}</style>
  </defs>
  <title
     id="title20">spring-icon</title>
  <g
     id="Layer_2"
     data-name="Layer 2">
    <g
       id="logos">
      <path
         class="cls-1"
         d="M88.4,5.6a42.32,42.32,0,0,1-5.2,9.1A48.46,48.46,0,1,0,15.5,84l1.8,1.6A48.41,48.41,0,0,0,96.8,52C98.2,39.8,94.5,24.2,88.4,5.6ZM22.5,84.4a4.12,4.12,0,1,1-.6-5.8A4.21,4.21,0,0,1,22.5,84.4ZM88.1,69.9C76.2,85.8,50.6,80.4,34.3,81.2c0,0-2.9.2-5.8.6,0,0,1.1-.5,2.5-1,11.5-4,16.9-4.8,23.9-8.4C68,65.7,81.1,51,83.7,35.8c-5,14.6-20.2,27.2-34,32.3C40.2,71.6,23.1,75,23.1,75l-.7-.4c-11.6-5.7-12-30.9,9.2-39,9.3-3.6,18.1-1.6,28.2-4,10.7-2.5,23.1-10.5,28.1-21C93.5,27.5,100.3,53.7,88.1,69.9Z"
         id="path22" />
    </g>
  </g>
  <path
     style="fill:#ffffff;stroke-width:0.11589"
     d="m 29.609916,81.401059 c 0.814893,-0.379577 6.872334,-2.375335 12.260058,-4.039349 6.645916,-2.052608 8.608002,-2.76952 11.903025,-4.349158 5.604376,-2.686742 10.78508,-6.475781 15.709513,-11.489549 6.04542,-6.15509 10.379824,-12.920154 12.789788,-19.96209 0.657337,-1.92074 1.672136,-6.053099 1.426496,-5.808822 -0.03205,0.03187 -0.292769,0.657676 -0.57938,1.390681 -2.173341,5.558293 -5.76213,10.894754 -10.666686,15.861152 -7.328359,7.420766 -15.794685,12.764105 -25.053686,15.812096 -5.260075,1.731575 -13.345855,3.806734 -21.982811,5.641737 l -2.281498,0.484726 -0.78959,-0.434272 c -1.977319,-1.08752 -3.49942,-2.479984 -4.727766,-4.325102 -4.211711,-6.326484 -4.081203,-15.864591 0.318492,-23.276929 3.324734,-5.601307 8.5409,-9.608926 15.394379,-11.827612 3.658781,-1.184463 6.593718,-1.578538 15.283235,-2.052086 5.544432,-0.302152 8.308627,-0.659678 11.765249,-1.52174 11.205776,-2.794654 22.200728,-10.807548 26.924313,-19.621881 0.357962,-0.667966 0.612205,-1.030472 0.650236,-0.92712 0.271644,0.738218 1.610616,5.059134 2.225276,7.181057 2.411914,8.326376 3.838028,15.542806 4.465941,22.598566 0.223964,2.516647 0.191233,8.890068 -0.05698,11.095976 -0.627393,5.575646 -1.884864,9.95827 -4.027976,14.038572 -4.650409,8.853975 -12.571951,13.617286 -24.965753,15.012182 -4.818992,0.542368 -9.30501,0.627341 -18.890083,0.357812 -7.828079,-0.220124 -12.115066,-0.189664 -14.833931,0.105397 -0.892354,0.09684 -1.883214,0.203661 -2.201912,0.237374 l -0.57945,0.0613 z"
     id="path272" />
  <path
     style="fill:#ffffff;stroke-width:0.11589"
     d="m 17.824126,85.572937 c -0.861572,-0.331234 -1.68969,-1.122391 -2.146449,-2.05065 -0.341696,-0.694418 -0.379637,-0.872579 -0.374761,-1.75977 0.0045,-0.824985 0.05613,-1.092065 0.314095,-1.625978 0.854262,-1.768049 2.809118,-2.727026 4.617327,-2.265083 1.279146,0.326783 2.090147,1.009138 2.693852,2.266537 0.313108,0.652142 0.361363,0.877769 0.35939,1.680406 -0.0019,0.770877 -0.05829,1.049997 -0.334657,1.656241 -0.417092,0.91495 -1.311875,1.764726 -2.213332,2.102005 -0.845764,0.316441 -2.08683,0.314862 -2.915465,-0.0037 z"
     id="path274" />
</svg>
